HIERARCHY
ROOT Hips
{
	OFFSET 0.000000 0.000000 0.000000
	CHANNELS 6 Xposition Yposition Zposition Zrotation Yrotation Xrotation 
	JOINT LowerBack
	{
		OFFSET 0.000000 0.000000 0.000000
		CHANNELS 3 Zrotation Yrotation Xrotation
		JOINT Spine
		{
			OFFSET 0.028270 2.035590 -0.193380
			CHANNELS 3 Zrotation Yrotation Xrotation
			JOINT Spine1
			{
				OFFSET 0.056720 2.048850 -0.042750
				CHANNELS 3 Zrotation Yrotation Xrotation
				JOINT Neck
				{
					OFFSET 0.000000 0.000000 0.000000
					CHANNELS 3 Zrotation Yrotation Xrotation
					JOINT Neck1
					{
						OFFSET -0.054170 1.746240 0.172020
						CHANNELS 3 Zrotation Yrotation Xrotation
						JOINT Head
						{
							OFFSET 0.104070 1.761360 -0.123970
							CHANNELS 3 Zrotation Yrotation Xrotation
							End Site
							{
								OFFSET 0.000000 0.000000 0.000000
							}
						}
					}
				}
				JOINT LeftShoulder
				{
					OFFSET 0.000000 0.000000 0.000000
					CHANNELS 3 Zrotation Yrotation Xrotation
					JOINT LeftArm
					{
						OFFSET 3.362410 1.200890 -0.311210
						CHANNELS 3 Zrotation Yrotation Xrotation
						JOINT LeftForeArm
						{
							OFFSET 4.983000 -0.000000 -0.000000
							CHANNELS 3 Zrotation Yrotation Xrotation
							JOINT LeftHand
							{
								OFFSET 3.483560 -0.000000 -0.000000
								CHANNELS 3 Zrotation Yrotation Xrotation
								JOINT LeftFingerBase
								{
									OFFSET 0.000000 0.000000 0.000000
									CHANNELS 3 Zrotation Yrotation Xrotation
									JOINT LeftHandIndex1
									{
										OFFSET 0.715260 -0.000000 -0.000000
										CHANNELS 3 Zrotation Yrotation Xrotation
										End Site
										{
											OFFSET 0.000000 0.000000 0.000000
										}
									}
								}
								JOINT LThumb
								{
									OFFSET 0.000000 0.000000 0.000000
									CHANNELS 3 Zrotation Yrotation Xrotation
									End Site
									{
										OFFSET 0.000000 0.000000 0.000000
									}
								}
							}
						}
					}
				}
				JOINT RightShoulder
				{
					OFFSET 0.000000 0.000000 0.000000
					CHANNELS 3 Zrotation Yrotation Xrotation
					JOINT RightArm
					{
						OFFSET -3.136600 1.374050 -0.404650
						CHANNELS 3 Zrotation Yrotation Xrotation
						JOINT RightForeArm
						{
							OFFSET -5.241900 -0.000000 -0.000000
							CHANNELS 3 Zrotation Yrotation Xrotation
							JOINT RightHand
							{
								OFFSET -3.444170 -0.000000 -0.000000
								CHANNELS 3 Zrotation Yrotation Xrotation
								JOINT RightFingerBase
								{
									OFFSET 0.000000 0.000000 0.000000
									CHANNELS 3 Zrotation Yrotation Xrotation
									JOINT RightHandIndex1
									{
										OFFSET -0.622530 -0.000000 -0.000000
										CHANNELS 3 Zrotation Yrotation Xrotation
										End Site
										{
											OFFSET 0.000000 0.000000 0.000000
										}
									}
								}
								JOINT RThumb
								{
									OFFSET 0.000000 0.000000 0.000000
									CHANNELS 3 Zrotation Yrotation Xrotation
									End Site
									{
										OFFSET 0.000000 0.000000 0.000000
									}
								}
							}
						}
					}
				}
			}
		}
	}
}
}
MOTION
Frames: 9
Frame Time: 0.008333
-3.330996 15.801694 -0.088427 -134.279065 74.096927 -114.178506 1.590016 0.598899 12.977478 -0.659623 0.840257 -0.746891 -6.793506 0.905631 -1.525156 8.979880 -5.703332 -6.170971 -2.003869 -0.146023 0.019365 0.000000 0.000000 0.000000 2.043738 15.840509 2.121806 -72.472742 30.388797 16.991122 -0.300137 -83.160792 -0.007951 4.283840 3.714297 0.138257 -0.050910 0.077276 0.000000 0.000000 0.000000 0.000000 0.000000 0.000000 0.000000 4.656001 0.834659 -1.659754 65.354689 12.539795 5.436074 179.937213 80.701896 179.911595 -11.957475 2.529862 -0.319579 0.202760 -0.478379 -0.000000 0.000000 0.000000 0.000000 0.000000 0.000000 0.000000 
-3.174201 15.748749 -0.128058 -133.768559 73.780426 -114.105541 1.385206 0.541440 13.002983 -0.719542 0.782305 -0.762102 -6.875788 0.847005 -1.600463 9.092102 -5.612017 -6.180487 -2.027842 -0.147431 0.017020 0.000000 0.000000 0.000000 1.877996 15.500315 2.176513 -72.525011 29.643975 16.342918 -0.325880 -82.457370 -0.008806 4.575450 3.804310 0.151285 -0.056033 0.078564 0.000000 0.000000 0.000000 0.000000 0.000000 0.000000 0.000000 4.845903 0.950292 -1.596900 65.992551 12.064296 5.865506 179.937691 81.415734 179.915412 -11.498705 2.783729 -0.333285 0.190143 -0.479488 -0.000000 0.000000 0.000000 0.000000 0.000000 0.000000 0.000000 
-3.020726 15.698534 -0.166196 -133.518546 73.494443 -114.278930 1.144343 0.485331 13.051735 -0.786094 0.726590 -0.774000 -6.955589 0.790079 -1.683164 9.176419 -5.498545 -6.164758 -2.056406 -0.149421 0.020330 0.000000 0.000000 0.000000 1.684346 15.088667 2.229586 -72.453714 28.721697 15.804275 -0.356631 -81.632498 -0.009735 4.874905 3.929269 0.166613 -0.061418 0.079592 0.000000 0.000000 0.000000 0.000000 0.000000 0.000000 0.000000 5.036913 1.072845 -1.527600 66.660887 11.540443 6.242967 179.940813 82.221912 179.919330 -11.026507 3.054870 -0.345996 0.176763 -0.480209 -0.000000 0.000000 0.000000 0.000000 0.000000 0.000000 0.000000 
-2.870638 15.651951 -0.203263 -133.541379 73.229280 -114.703475 0.881063 0.432150 13.118866 -0.856657 0.674259 -0.783605 -7.033586 0.735873 -1.772755 9.228205 -5.366685 -6.119465 -2.090818 -0.152160 0.030732 0.000000 0.000000 0.000000 1.447653 14.592530 2.277743 -72.247670 27.635514 15.363935 -0.392369 -80.700132 -0.010756 5.188613 4.097608 0.185042 -0.067159 0.080193 0.000000 0.000000 0.000000 0.000000 0.000000 0.000000 0.000000 5.232536 1.194543 -1.450948 67.347684 10.968466 6.562105 179.946646 83.128177 179.923260 -10.555547 3.335398 -0.357311 0.163059 -0.480230 -0.000000 0.000000 0.000000 0.000000 0.000000 0.000000 0.000000 
-2.723950 15.609599 -0.239898 -133.840339 72.970757 -115.377189 0.610463 0.382105 13.199621 -0.927801 0.625041 -0.789620 -7.108294 0.684303 -1.860378 9.243812 -5.223304 -6.048065 -2.131148 -0.155605 0.047404 0.000000 0.000000 0.000000 1.172210 14.035397 2.319750 -71.907984 26.365623 15.034311 -0.433692 -79.654057 -0.011912 5.527631 4.316668 0.207971 -0.073503 0.080304 0.000000 0.000000 0.000000 0.000000 0.000000 0.000000 0.000000 5.433379 1.304654 -1.369968 68.039829 10.359540 6.822465 179.955513 84.145835 179.927094 -10.103760 3.614120 -0.366628 0.149500 -0.479148 -0.000000 0.000000 0.000000 0.000000 0.000000 0.000000 0.000000 
-2.580615 15.571862 -0.276792 -134.410448 72.703906 -116.291610 0.348419 0.334358 13.288972 -0.995828 0.577627 -0.791206 -7.177833 0.634245 -1.938878 9.219537 -5.074164 -5.954158 -2.177016 -0.159683 0.069570 0.000000 0.000000 0.000000 0.857754 13.437652 2.354642 -71.442549 24.908616 14.810302 -0.480686 -78.505867 -0.013249 5.899811 4.592928 0.236501 -0.080601 0.079898 0.000000 0.000000 0.000000 0.000000 0.000000 0.000000 0.000000 5.636939 1.394263 -1.287081 68.724431 9.725066 7.027510 179.967510 85.287003 179.930726 -9.690331 3.877460 -0.373749 0.136604 -0.476544 -0.000000 0.000000 0.000000 0.000000 0.000000 0.000000 0.000000 
-2.440492 15.538847 -0.314630 -135.237997 72.413689 -117.430840 0.110021 0.287391 13.381970 -1.057143 0.530143 -0.788126 -7.240162 0.583973 -2.003559 9.152259 -4.922533 -5.840485 -2.227725 -0.164312 0.096740 0.000000 0.000000 0.000000 0.501381 12.813899 2.381769 -70.867227 23.278520 14.669400 -0.532834 -77.284319 -0.014803 6.308144 4.929927 0.271931 -0.088473 0.079010 0.000000 0.000000 0.000000 0.000000 0.000000 0.000000 0.000000 5.838331 1.457938 -1.203778 69.389708 9.074148 7.182684 179.982502 86.563039 179.934061 -9.334146 4.110118 -0.378573 0.124888 -0.472019 -0.000000 0.000000 0.000000 0.000000 0.000000 0.000000 0.000000 
-2.303471 15.510424 -0.354142 -136.298937 72.084452 -118.770800 -0.093072 0.238451 13.474385 -1.108560 0.479637 -0.778825 -7.292060 0.530932 -2.045643 9.040909 -4.775277 -5.715329 -2.281631 -0.169252 0.126769 0.000000 0.000000 0.000000 0.112712 12.200792 2.401484 -70.208974 21.468622 14.599715 -0.589905 -76.008431 -0.016619 6.753393 5.326846 0.315062 -0.097156 0.077816 0.000000 0.000000 0.000000 0.000000 0.000000 0.000000 0.000000 6.030715 1.487712 -1.123188 70.024169 8.423984 7.299718 -179.999762 87.985387 179.937026 -9.052940 4.296353 -0.381298 0.114818 -0.465224 -0.000000 0.000000 0.000000 0.000000 0.000000 0.000000 0.000000 
-2.169392 15.486375 -0.395909 -137.558878 71.701261 -120.276313 -0.250061 0.184718 13.561770 -1.147112 0.423225 -0.762111 -7.330500 0.472644 -2.057732 8.885904 -4.641116 -5.587598 -2.336863 -0.174244 0.157324 0.000000 0.000000 0.000000 -0.298975 11.633063 2.413788 -69.501290 19.478461 14.579596 -0.651314 -74.705872 -0.018751 7.230325 5.775873 0.366393 -0.106593 0.076596 0.000000 0.000000 0.000000 0.000000 0.000000 0.000000 0.000000 6.206652 1.475095 -1.047422 70.617682 7.792933 7.393247 -179.979779 89.562274 179.939584 -8.860713 4.420032 -0.381923 0.106793 -0.455891 -0.000000 0.000000 0.000000 0.000000 0.000000 0.000000 0.000000 
